<svg width="32" height="32" viewBox="0 0 32 32" fill="none" xmlns="http://www.w3.org/2000/svg">
<path d="M16 0C7.15625 0 0 7.15625 0 16C0 24.8438 7.15625 32 16 32C24.8438 32 32 24.8438 32 16C32 7.15625 24.8438 0 16 0ZM16 29.5C8.5375 29.5 2.5 23.4625 2.5 16C2.5 8.5375 8.5375 2.5 16 2.5C23.4625 2.5 29.5 8.5375 29.5 16C29.5 23.4625 23.4625 29.5 16 29.5Z" fill="#FF6868"/>
<path d="M21.4753 19.7062L17.769 16L21.4753 12.2937C21.9628 11.8062 21.9628 11.0125 21.4753 10.525C20.9878 10.0375 20.194 10.0375 19.7065 10.525L16.0003 14.2312L12.294 10.525C11.8065 10.0375 11.0128 10.0375 10.5253 10.525C10.0378 11.0125 10.0378 11.8062 10.5253 12.2937L14.2315 16L10.5253 19.7062C10.0378 20.1937 10.0378 20.9875 10.5253 21.475C11.0128 21.9625 11.8065 21.9625 12.294 21.475L16.0003 17.7687L19.7065 21.475C20.194 21.9625 20.9878 21.9625 21.4753 21.475C21.9628 20.9875 21.9628 20.1937 21.4753 19.7062Z" fill="#FF6868"/>
</svg>