<svg width="24" height="32" viewBox="0 0 24 32" fill="none" xmlns="http://www.w3.org/2000/svg">
<path d="M11.6361 14.5454C13.2428 14.5454 14.5452 13.243 14.5452 11.6364C14.5452 10.0297 13.2428 8.72726 11.6361 8.72726C10.0295 8.72726 8.72705 10.0297 8.72705 11.6364C8.72705 13.243 10.0295 14.5454 11.6361 14.5454Z" fill="#AFAFAF"/>
<path d="M20.3637 14.5454C21.9703 14.5454 23.2728 13.243 23.2728 11.6364C23.2728 10.0297 21.9703 8.72726 20.3637 8.72726C18.757 8.72726 17.4546 10.0297 17.4546 11.6364C17.4546 13.243 18.757 14.5454 20.3637 14.5454Z" fill="#AFAFAF"/>
<path d="M11.6361 5.81818C13.2428 5.81818 14.5452 4.51574 14.5452 2.90909C14.5452 1.30244 13.2428 0 11.6361 0C10.0295 0 8.72705 1.30244 8.72705 2.90909C8.72705 4.51574 10.0295 5.81818 11.6361 5.81818Z" fill="#AFAFAF"/>
<path d="M20.3637 5.81818C21.9703 5.81818 23.2728 4.51574 23.2728 2.90909C23.2728 1.30244 21.9703 0 20.3637 0C18.757 0 17.4546 1.30244 17.4546 2.90909C17.4546 4.51574 18.757 5.81818 20.3637 5.81818Z" fill="#AFAFAF"/>
<path d="M2.90909 5.81818C4.51574 5.81818 5.81818 4.51574 5.81818 2.90909C5.81818 1.30244 4.51574 0 2.90909 0C1.30244 0 0 1.30244 0 2.90909C0 4.51574 1.30244 5.81818 2.90909 5.81818Z" fill="#AFAFAF"/>
<path d="M2.90909 14.5454C4.51574 14.5454 5.81818 13.243 5.81818 11.6364C5.81818 10.0297 4.51574 8.72726 2.90909 8.72726C1.30244 8.72726 0 10.0297 0 11.6364C0 13.243 1.30244 14.5454 2.90909 14.5454Z" fill="#AFAFAF"/>
<path d="M20.3637 23.2727C21.9703 23.2727 23.2728 21.9703 23.2728 20.3637C23.2728 18.757 21.9703 17.4546 20.3637 17.4546C18.757 17.4546 17.4546 18.757 17.4546 20.3637C17.4546 21.9703 18.757 23.2727 20.3637 23.2727Z" fill="#AFAFAF"/>
<path d="M11.6361 23.2727C13.2428 23.2727 14.5452 21.9703 14.5452 20.3637C14.5452 18.757 13.2428 17.4546 11.6361 17.4546C10.0295 17.4546 8.72705 18.757 8.72705 20.3637C8.72705 21.9703 10.0295 23.2727 11.6361 23.2727Z" fill="#AFAFAF"/>
<path d="M2.90909 23.2727C4.51574 23.2727 5.81818 21.9703 5.81818 20.3637C5.81818 18.757 4.51574 17.4546 2.90909 17.4546C1.30244 17.4546 0 18.757 0 20.3637C0 21.9703 1.30244 23.2727 2.90909 23.2727Z" fill="#AFAFAF"/>
<path d="M11.6361 32C13.2428 32 14.5452 30.6976 14.5452 29.0909C14.5452 27.4843 13.2428 26.1818 11.6361 26.1818C10.0295 26.1818 8.72705 27.4843 8.72705 29.0909C8.72705 30.6976 10.0295 32 11.6361 32Z" fill="#AFAFAF"/>
</svg>
