<svg width="32" height="32" viewBox="0 0 32 32" fill="none" xmlns="http://www.w3.org/2000/svg">
<path d="M15.9439 0.0119338C7.86263 0.0119338 -0.0373664 6.58069 0.000133607 15.9557C-0.0373664 25.3119 7.82513 31.9994 15.9501 31.9994C24.4314 31.9994 32.0376 25.0869 32.0001 15.9494C32.0001 15.4307 31.5814 15.0182 31.0626 15.0182H27.2501C26.7439 15.0182 26.3126 15.4244 26.3126 15.9557C26.3251 20.9119 22.6626 25.9619 15.9751 26.2682C9.91888 26.2682 5.67513 21.2307 5.68763 15.9557C5.67513 10.7182 9.90638 5.64318 15.9689 5.64318C16.1564 5.67443 19.3314 5.46818 22.3564 7.83694L20.1439 9.16194C19.8064 9.36819 19.6251 9.76193 19.7064 10.1494C19.7876 10.5369 20.1001 10.8369 20.4939 10.8932L29.7751 12.2182C30.3939 12.3057 30.9251 11.7744 30.8376 11.1557L29.5064 1.87443C29.4501 1.48068 29.1501 1.16818 28.7626 1.08693C28.3751 1.01193 27.9814 1.18068 27.7751 1.52443L26.3751 3.85568C21.5876 -0.263066 15.7564 -0.0193162 15.9439 0.0119338Z" fill="white"/>
</svg>
